<?xml version="1.0" encoding="UTF-8"?>
<svg id="_圖層_2" data-name="圖層 2" xmlns="http://www.w3.org/2000/svg" viewBox="0 0 54.09 56">
  <defs>
    <style>
      .cls-1 {
        fill: #fff;
      }

      .cls-2 {
        fill: #2f75c9;
        fill-rule: evenodd;
      }
    </style>
  </defs>
  <g id="top">
    <g>
      <path class="cls-2" d="M47.42,11.17c.06.06.12.11.18.16l.04-.18c.17-.7.13-2.79-.15-6.29-.24-3.16-.41-4-.85-4.44-.37-.36-.99-.5-1.59-.36-1.16.27-3.4,1.89-5.64,4.08l-.52.5c-3.58-1.75-7.59-2.73-11.84-2.73s-8.27.98-11.84,2.73l-.52-.5C12.45,1.94,10.2.32,9.04.05c-.6-.14-1.21,0-1.59.36-.45.44-.61,1.28-.85,4.44-.28,3.51-.33,5.6-.15,6.29l.04.18c.06-.06.12-.11.18-.16C2.52,15.93,0,22.14,0,28.95c0,14.94,12.11,27.05,27.05,27.05s27.05-12.11,27.05-27.05c0-6.81-2.52-13.03-6.68-17.78Z"/>
      <g>
        <path class="cls-1" d="M17.57,21.43h8.27v1.53h-6.45v4.85h5.48v1.53h-5.48v6.43h-1.82v-14.34Z"/>
        <path class="cls-1" d="M28.36,21.43h4.26c2.91,0,4.93.98,4.93,3.5,0,1.43-.76,2.68-2.11,3.11v.1c1.72.33,2.93,1.47,2.93,3.42,0,2.82-2.23,4.21-5.44,4.21h-4.58v-14.34ZM32.31,27.53c2.46,0,3.46-.92,3.46-2.37,0-1.68-1.15-2.31-3.38-2.31h-2.21v4.67h2.13ZM32.68,34.32c2.47,0,3.91-.88,3.91-2.82,0-1.78-1.41-2.58-3.91-2.58h-2.5v5.4h2.5Z"/>
      </g>
    </g>
  </g>
</svg>