<?xml version="1.0" encoding="UTF-8"?>
<svg id="_圖層_2" data-name="圖層 2" xmlns="http://www.w3.org/2000/svg" viewBox="0 0 61.74 56">
  <defs>
    <style>
      .cls-1 {
        fill: #fff;
      }

      .cls-2 {
        fill: #3fc630;
        fill-rule: evenodd;
      }
    </style>
  </defs>
  <g id="top">
    <g>
      <path class="cls-2" d="M61.48,7.49c-.55-1.94-2.08-4.07-3.75-5.18-1.65-1.12-4.32-2.01-6.67-2.24-1.06-.11-1.48-.11-2.24,0-1.03.14-2.12.48-3.16,1-.8.39-1.05.56-1.71,1.22-.55.56-.8.88-1.08,1.42-3.63-1.76-7.7-2.75-12-2.75s-8.37.99-12,2.75c-.28-.54-.53-.86-1.08-1.42-.66-.65-.9-.82-1.71-1.22-1.05-.52-2.14-.86-3.16-1-.76-.11-1.18-.11-2.24,0-2.35.22-5.02,1.12-6.67,2.24C2.34,3.42.81,5.55.25,7.49c-.23.83-.33,2.36-.19,3.04.23,1.11.81,1.9,1.71,2.31.38.18.67.24,1.32.27,1.43.06,2.21-.29,4.09-1.84,1.11-.92,2.02-1.5,3.05-1.93.79-.34,1.06-.45,1-.31.15-.09.32-.18.47-.27C6.56,13.75,3.35,20.74,3.35,28.48c0,15.2,12.32,27.52,27.52,27.52s27.52-12.32,27.52-27.52c0-7.74-3.2-14.73-8.35-19.73.15.09.32.17.47.27-.06-.13.21-.02,1,.31,1.03.43,1.94,1.01,3.05,1.93,1.88,1.56,2.66,1.9,4.09,1.84.65-.03.94-.09,1.32-.27.89-.41,1.48-1.2,1.71-2.31.14-.68.04-2.21-.19-3.04Z"/>
      <g>
        <path class="cls-1" d="M12.38,21.32h1.85v13.01h6.37v1.57h-8.22v-14.58Z"/>
        <path class="cls-1" d="M23.16,21.32h1.85v14.58h-1.85v-14.58Z"/>
        <path class="cls-1" d="M28.99,21.32h1.91l5.31,9.19,1.55,3h.1c-.1-1.47-.24-3.1-.24-4.62v-7.58h1.75v14.58h-1.89l-5.31-9.21-1.57-3h-.08c.08,1.47.22,3.02.22,4.56v7.66h-1.75v-14.58Z"/>
        <path class="cls-1" d="M43.36,21.32h8.42v1.55h-6.57v4.58h5.53v1.57h-5.53v5.31h6.79v1.57h-8.64v-14.58Z"/>
      </g>
    </g>
  </g>
</svg>