<svg xmlns="http://www.w3.org/2000/svg" xmlns:xlink="http://www.w3.org/1999/xlink" width="160" height="55.52" viewBox="0 0 160 55.52"><defs><clipPath id="a"><rect width="160" height="31.565" fill="none"/></clipPath></defs><g transform="translate(0 21.294)"><g transform="translate(0 0)" clip-path="url(#a)"><path d="M29.172.062C28.5.012,23.486,0,15.767,0,7.842,0,3.045.011,2.361.062A2.569,2.569,0,0,0,.693.69,2.425,2.425,0,0,0,.065,2.3C.016,2.953,0,8.035,0,15.763S.016,28.574.065,29.231a2.422,2.422,0,0,0,.628,1.606,2.606,2.606,0,0,0,1.668.627c.688.06,5.686.1,13.406.1s12.721-.041,13.406-.1a2.607,2.607,0,0,0,1.668-.627,2.423,2.423,0,0,0,.627-1.606c.05-.656.063-5.741.063-13.468S31.517,2.955,31.467,2.3A2.422,2.422,0,0,0,30.84.691,2.567,2.567,0,0,0,29.172.062" transform="translate(0 0)" fill="#f46c00"/><path d="M22.13,7.893c-1.2-.058-2.831-.082-5.663-.082S12,7.835,10.8,7.893A4.72,4.72,0,0,0,7.785,9.007a4.239,4.239,0,0,0-1.337,3.129c-.02,1.271-.025,2.062-.025,4.117s.005,2.863.025,4.116A4.264,4.264,0,0,0,7.784,23.5,4.769,4.769,0,0,0,10.8,24.61c1.2.064,2.832.118,5.664.118s4.458-.054,5.663-.118A4.766,4.766,0,0,0,25.149,23.5a4.264,4.264,0,0,0,1.336-3.128c.02-1.253.026-2.057.026-4.116s-.005-2.846-.026-4.117a4.235,4.235,0,0,0-1.336-3.129A4.726,4.726,0,0,0,22.13,7.893" transform="translate(-0.701 -0.852)" fill="#fff"/><path d="M22.126,11.821h-.843V17.8h.843c.712,0,.952-.509.952-1.066V12.887c0-.558-.24-1.066-.952-1.066" transform="translate(-2.322 -1.29)"/><path d="M15.6,21.833a1.76,1.76,0,0,0,1.872,1.832,1.761,1.761,0,0,0,1.873-1.832Z" transform="translate(-1.702 -2.382)"/><path d="M13.989,16.824c0,.535-.23,1.023-.914,1.023s-.913-.488-.913-1.023v-5h1.827Z" transform="translate(-1.327 -1.29)"/><path d="M41.238,7.58h.881V22.451c-.464.086-.922.179-1.36.278l-.032.008.316,1.452.033-.007c1.954-.439,3.787-.919,5.45-1.426v4.306h1.5V7.58h1.033V6.152H41.238Zm2.358,0h2.93v3.737H43.6Zm0,5.063h2.93v3.608H43.6Zm0,9.459v-4.55h2.93v3.821c-.927.216-1.912.461-2.93.729" transform="translate(-4.443 -0.672)" fill="#fff"/><path d="M64.184,15.473l.006.033,1.252-.272-.01-.034a21.775,21.775,0,0,0-1.211-3.243l-.012-.026-1.172.326.014.035c.183.44.363.868.537,1.271l-2.6.367A31.08,31.08,0,0,0,64.65,8.259l.012-.027L63.6,7.6l-.031-.019-.016.032c-.46.94-1,1.92-1.611,2.913-.474-.582-.933-1.125-1.365-1.615a31.642,31.642,0,0,0,1.978-3.35l.016-.031-1.2-.515-.013.029a24.258,24.258,0,0,1-1.711,2.943,6.537,6.537,0,0,0-.58-.563L59.047,7.4l-.769,1.082.022.02a22.726,22.726,0,0,1,2.853,3.137c-.6.792-1.248,1.638-1.941,2.512l-.707.107.013.037a6.136,6.136,0,0,1,.275,1.151l0,.033,5.194-.747a6.574,6.574,0,0,1,.192.741" transform="translate(-6.357 -0.547)" fill="#fff"/><path d="M55.058,20.436a12.392,12.392,0,0,1-.121,1.766h-2.1V17.883h-1.5v5.644H54.59c-.094.237-.2.48-.309.724a7.823,7.823,0,0,1-2.96,3.044l-.035.022,1.107,1.1.022-.015A8.992,8.992,0,0,0,55.676,25a10.826,10.826,0,0,0,.885-4.563V17.575h-1.5Z" transform="translate(-5.594 -1.918)" fill="#fff"/><path d="M63.26,22.406h-2.25V17.575h-1.5V28.364h.055a1.414,1.414,0,0,0,1.447-1.446V23.732h3.728V17.883H63.26Z" transform="translate(-6.491 -1.918)" fill="#fff"/><path d="M56.168,12.115l-.01-.026-1.2.217.013.037c.143.388.282.789.415,1.194l-2.37.293A29.575,29.575,0,0,0,56.8,8.287l.012-.027-1.088-.7-.017.032c-.478.909-1.029,1.846-1.637,2.787-.437-.508-.878-1.017-1.314-1.515a27.215,27.215,0,0,0,2.053-3.271l.016-.031-1.194-.542-.015.028a28.522,28.522,0,0,1-1.788,2.92c-.208-.211-.412-.4-.6-.565l-.029-.025-.742,1.136.022.019a21.954,21.954,0,0,1,2.851,2.956c-.65.816-1.344,1.67-2.065,2.539l-1.01.132.013.038a6.079,6.079,0,0,1,.276,1.15l0,.033,5.165-.643c.049.263.1.5.146.716l.007.03,1.189-.184.034-.006-.006-.033a18.2,18.2,0,0,0-.909-3.141" transform="translate(-5.481 -0.548)" fill="#fff"/><path d="M72.822,28.449h1.5V27.241H88.362v1.244h.056a1.412,1.412,0,0,0,1.446-1.446V18.873H72.822Zm15.54-2.636H74.324V20.3H88.362Z" transform="translate(-7.944 -2.059)" fill="#fff"/><rect width="12.66" height="1.403" transform="translate(66.944 12.214)" fill="#fff"/><path d="M92.274,13.437c-5.326-2.64-8.948-5.455-10.767-8.366l-.01-.016H80.152l-.01.014c-2.053,2.895-5.718,5.779-10.894,8.574l-.031.017.79,1.263.027-.014A33.115,33.115,0,0,0,80.8,6.53c2.194,3.01,5.757,5.777,10.589,8.225l.027.013.894-1.315Z" transform="translate(-7.55 -0.552)" fill="#fff"/><path d="M113.194,12.877V8.03a54.457,54.457,0,0,0,7.583-1.59l.041-.012-.753-1.27-.012-.022-.026.008a41.044,41.044,0,0,1-8.3,1.643l-.03,0v7.973a36.982,36.982,0,0,1-.478,6.342,15.058,15.058,0,0,1-1.834,5.027l-.018.03,1.394.724.016-.027a15.635,15.635,0,0,0,1.906-5.215,39.645,39.645,0,0,0,.517-6.881V14.28h4.114V26.962h.031a1.413,1.413,0,0,0,1.446-1.446V14.28h3v-1.4Z" transform="translate(-11.929 -0.561)" fill="#fff"/><path d="M108.209,21.551a19.868,19.868,0,0,1-3.663-3.1v-.364H109V16.662h-4.458V14.056h3.98v-1.4h-1.854l1.04-3.917H109v-1.4h-4.458V4.968h-1.5V7.332H98.41v1.4h1.468l.966,3.917H98.813v1.4h4.232v2.606H98.233v1.429h4.51a22.53,22.53,0,0,1-1.807,2.721,24.7,24.7,0,0,1-3.17,3.157l-.028.023,1,1,.023-.02a26.079,26.079,0,0,0,3.329-3.346c.314-.4.633-.837.948-1.3v6.607h1.5V20.15a18.974,18.974,0,0,0,3.045,2.818l.034.024.607-1.426ZM106.158,8.736l-.991,3.917h-2.794l-.917-3.917Z" transform="translate(-10.662 -0.542)" fill="#fff"/><path d="M145.145,25.313l-.107-1.146-.034,0q-.989.1-2,.2V17.3h1.914V16.074H131.852V17.3h1.889v7.721c-.777.018-1.555.052-2.311.1l-.033,0,.053,1.247.033,0c3.516-.135,6.886-.351,10.016-.639v2H143V25.569c.7-.1,1.413-.184,2.111-.252ZM141.5,23.054v1.452c-2.03.153-4.144.3-6.281.433V23.054Zm0-1.12h-6.28V20.253h6.28Zm0-2.8h-6.28V17.3h6.28Z" transform="translate(-14.333 -1.754)" fill="#fff"/><path d="M141.1,5.8V13.35h7.178V24.78a.585.585,0,0,1-.672.66h-2.31l.126.458a1.426,1.426,0,0,0,1.413,1.074h1a1.733,1.733,0,0,0,1.923-1.987V5.8Zm1.477,1.223h5.7V9.018h-5.7Zm0,3.213h5.7v1.887h-5.7Z" transform="translate(-15.391 -0.634)" fill="#fff"/><path d="M136.4,5.8h-8.68V27.023H129.2V13.35h7.2Zm-1.5,6.322h-5.7V10.24h5.7Zm0-3.109h-5.7V7.028h5.7Z" transform="translate(-13.932 -0.634)" fill="#fff"/><path d="M155.94,20.605c-.117,1.208-.235,2.106-.352,2.669v0c-.1.6-.356,1.64-.78,3.183l-.01.037,1.473.211.029,0,.008-.029c.35-1.344.587-2.365.706-3.035.117-.686.227-1.672.328-2.933l0-.033-1.4-.108Z" transform="translate(-16.886 -2.245)" fill="#fff"/><path d="M163.738,20.487l-1.265.053h-.036l0,.035c.15,1.654.235,3.14.251,4.418v.033h1.325v-.033c.017-.837-.076-2.344-.277-4.476Z" transform="translate(-17.719 -2.235)" fill="#fff"/><path d="M175.486,22.008h-3.962c-.218,0-.32-.1-.32-.3V17.577h4.76V16.251h-2.947V13.645h2.947V12.318h-1.472l1.106-3-1.374-.239-.029,0-1.109,3.242h-1.514l-1-3.317-.009-.03-1.4.324.98,3.023h-1.625v1.327h3.124v2.606h-3.124v1.327H169.7V21.99a1.27,1.27,0,0,0,1.418,1.447h4.366Z" transform="translate(-18.382 -0.979)" fill="#fff"/><path d="M162.536,13.319l-.01-.026-1.3.216.013.037c.2.567.371,1.131.519,1.681l-3.364.249a52.725,52.725,0,0,0,4.443-7.039l.016-.031L161.513,7.8l-.03-.013-.014.029c-.694,1.382-1.455,2.734-2.266,4.019-.57-.695-1.139-1.334-1.692-1.9a47.162,47.162,0,0,0,2.656-4.349l.018-.032L158.917,5l-.029-.012-.013.029a31.346,31.346,0,0,1-2.367,3.945,3.834,3.834,0,0,0-.531-.487l-.028-.02-.8,1.159-.019.025.024.019a27.429,27.429,0,0,1,3.253,3.394c-.638.874-1.282,1.736-1.915,2.563l-1.345.1-.033,0,.106,1.4,3.473-.309V26.934h1.5V16.7l1.878-.174c.05.315.109.625.172.922l.008.03,1.45-.216-.007-.035a28.385,28.385,0,0,0-1.16-3.911" transform="translate(-16.92 -0.544)" fill="#fff"/><path d="M165.776,6.151v20.91h1.477V7.58h9.353V24.458a.9.9,0,0,1-1.025,1.02h-1.957l.126.458a1.425,1.425,0,0,0,1.413,1.074h.47a2.195,2.195,0,0,0,2.451-2.5V6.151Z" transform="translate(-18.083 -0.671)" fill="#fff"/></g></g><rect width="160" height="55.52" fill="none"/></svg>