<?xml version="1.0" encoding="UTF-8"?>
<svg id="_圖層_2" data-name="圖層 2" xmlns="http://www.w3.org/2000/svg" viewBox="0 0 182.18 45.53">
  <defs>
    <style>
      .cls-1 {
        fill: #fff;
      }

      .cls-2 {
        fill: #f46c00;
      }
    </style>
  </defs>
  <g id="top">
    <g id="_寵物部落" data-name="寵物部落">
      <path class="cls-2" d="M72.41,21.13c-.2-.19-.43-.36-.66-.51,2.05-4.34,1.29-9.69-2.31-13.29-4.57-4.57-11.99-4.57-16.56,0-.76.76-.76,2,0,2.76s2,.76,2.76,0c3.05-3.05,7.99-3.05,11.04,0,2.59,2.59,2.98,6.55,1.17,9.55-1.49-.07-3.51-.13-6.69-.13-3.67,0-5.77.07-7.34.15-1.55.09-2.91.54-3.91,1.46-.55.52-.99,1.16-1.29,1.86-.3.71-.45,1.46-.44,2.23-.02,1.53-.03,2.55-.03,4.87v7.63c.77.01,1.63.01,2.6.01,3.67,0,5.78-.07,7.34-.15,1.55-.09,2.91-.54,3.91-1.46.55-.52.99-1.16,1.29-1.86.07-.17.14-.34.19-.52-.07.4-.19.79-.35,1.17-.3.71-.73,1.34-1.27,1.86-.98.92-2.33,1.37-3.87,1.46-1.54.09-3.62.15-7.25.15-.97,0-1.83,0-2.6-.02v4.57c0,2.32,2.8,3.48,4.44,1.84l3.01-3.01c.25-.25.59-.39.94-.38,1.21.02,2.7.03,4.62.03s3.4,0,4.61-.03c.35,0,.69.13.94.38l3.01,3.01c1.64,1.64,4.44.48,4.44-1.84v-12.84c0-2.32-.01-3.34-.03-4.87,0-.76-.15-1.52-.44-2.23s-.73-1.34-1.29-1.86h.01Z"/>
      <path class="cls-2" d="M37.74,14.32v12.84c0,2.32.01,3.34.03,4.87,0,.76.15,1.52.44,2.23.3.71.73,1.34,1.29,1.86,1,.92,2.36,1.37,3.91,1.46,1.55.09,3.67.15,7.34.15s5.78-.07,7.34-.15c1.55-.09,2.91-.54,3.91-1.46.55-.52.99-1.16,1.29-1.86.3-.71.45-1.46.44-2.23.02-1.53.03-2.55.03-4.87v-12.84c0-2.32-2.8-3.48-4.44-1.84l-2.03,2.03c-.88.88-2.07,1.35-3.31,1.34-.92,0-1.99-.01-3.23-.01s-2.31,0-3.23.01c-1.24.01-2.44-.47-3.31-1.34l-2.03-2.03c-1.64-1.64-4.44-.48-4.44,1.84h0Z"/>
      <path class="cls-1" d="M56.62,17.65c-1.25-.06-2.93-.09-5.87-.09s-4.63.02-5.87.09c-1.14,0-2.25.42-3.13,1.16-.44.42-.8.92-1.03,1.48-.24.56-.36,1.16-.35,1.77-.02,1.32-.03,2.14-.03,4.28s0,2.97.03,4.28c0,.61.12,1.21.35,1.77.24.56.59,1.06,1.03,1.48.8.73,1.89,1.09,3.13,1.16s2.94.13,5.87.13,4.62-.06,5.87-.13c1.24-.07,2.33-.43,3.13-1.16.44-.42.79-.92,1.03-1.48.24-.56.36-1.16.35-1.77.02-1.3.03-2.13.03-4.28s0-2.95-.03-4.28c0-.61-.11-1.21-.35-1.77-.24-.56-.59-1.06-1.03-1.48-.88-.74-1.98-1.15-3.13-1.16Z"/>
      <path d="M53.35,17.57c-.4,0-.83,0-1.3,0v2.93c0,.18.15.32.32.32h.65c.18,0,.32-.15.32-.32v-2.92h0Z"/>
      <path d="M49.45,20.49v-2.93c-.47,0-.9,0-1.3,0v2.92c0,.18.15.32.32.32h.65c.18,0,.32-.15.32-.32h0Z"/>
      <path d="M45.55,28.79c.97,0,1.3-.63,1.3-1.33v-1.28h-2.6v1.28c0,.69.33,1.33,1.3,1.33h0Z"/>
      <path d="M57.26,27.49c0-.97-.63-1.3-1.33-1.3h-1.28v2.6h1.28c.69,0,1.33-.33,1.33-1.3h0Z"/>
      <path d="M51.08,30.48c.27-.07.53-.23.71-.48l.13-.17c.32-.43.02-1.04-.52-1.04h-1.3c-.54,0-.84.61-.52,1.04l.13.17c.19.25.44.41.71.48-.03.69-.6,1.24-1.3,1.24-.61,0-1.12-.42-1.26-.98-.05-.18-.19-.32-.36-.32s-.33.15-.3.32c.15.92.96,1.63,1.92,1.63.68,0,1.28-.35,1.63-.87.35.52.94.87,1.63.87.97,0,1.77-.71,1.92-1.63.03-.18-.12-.32-.3-.32s-.32.15-.36.32c-.14.56-.65.98-1.26.98-.69,0-1.26-.55-1.3-1.24h0Z"/>
      <path d="M35.15,28.28c.02-.19.19-.32.38-.3l5.84.91c.18.03.3.2.28.39v.03c-.03.19-.2.32-.38.3l-5.84-.91c-.18-.03-.3-.2-.28-.39v-.03h0Z"/>
      <path d="M35.42,31.16c-.18.03-.3.2-.28.39v.03c.03.19.2.32.38.3l5.84-.91c.18-.03.3-.2.28-.39v-.03c-.03-.19-.2-.32-.38-.3l-5.84.91Z"/>
      <path d="M66.36,28.28c-.02-.19-.19-.32-.38-.3l-5.84.91c-.18.03-.3.2-.28.39v.03c.03.19.2.32.38.3l5.84-.91c.18-.03.3-.2.28-.39v-.03h0Z"/>
      <path d="M66.09,31.16c.18.03.3.2.28.39v.03c-.03.19-.2.32-.38.3l-5.84-.91c-.18-.03-.3-.2-.28-.39v-.03c.03-.19.2-.32.38-.3l5.84.91Z"/>
      <path class="cls-2" d="M26.03,26.61v4.62c0,2.32-2.8,3.48-4.44,1.84l-3.01-3.01c-.25-.25-.59-.39-.94-.38-1.21.02-2.7.03-4.62.03s-3.4,0-4.62-.03c-.35,0-.69.13-.94.38l-3.01,3.01c-1.64,1.64-4.44.48-4.44-1.84v-12.84c0-2.32.01-3.34.03-4.87,0-.76.15-1.53.44-2.23.3-.71.73-1.34,1.29-1.86,1-.92,2.36-1.37,3.91-1.46,1.56-.09,3.67-.15,7.34-.15s5.78.07,7.34.15c1.55.09,2.91.54,3.91,1.46.55.52.99,1.16,1.29,1.86.3.71.45,1.46.44,2.23.02,1.53.03,2.56.03,4.87v7.58c-1.31.04-2.97.07-5.2.07-3.67,0-5.78-.07-7.34-.15-1.55-.09-2.91-.54-3.91-1.46-.55-.52-.99-1.16-1.29-1.86-.07-.17-.14-.34-.19-.52.07.4.19.79.35,1.17.3.71.73,1.34,1.27,1.86.98.92,2.33,1.37,3.87,1.46,1.53.09,3.62.15,7.25.15,2.25,0,3.91-.03,5.2-.07h0Z"/>
      <path class="cls-2" d="M7.81,2.61v12.84c0,2.32.01,3.34.03,4.87,0,.76.15,1.52.44,2.23.3.71.73,1.34,1.29,1.86,1,.92,2.36,1.37,3.91,1.46,1.55.09,3.67.15,7.34.15s5.77-.07,7.34-.15c1.55-.09,2.91-.54,3.91-1.46.55-.52.99-1.16,1.29-1.86.3-.71.45-1.46.44-2.23.02-1.53.03-2.55.03-4.87V2.61c0-2.32-2.8-3.48-4.44-1.84l-2.03,2.03c-.88.88-2.07,1.35-3.31,1.34-.92,0-1.99-.01-3.23-.01s-2.31,0-3.23.01c-1.24.01-2.44-.47-3.31-1.34l-2.03-2.03c-1.64-1.64-4.44-.48-4.44,1.84h0Z"/>
      <path class="cls-1" d="M26.69,5.94c-1.25-.06-2.93-.09-5.87-.09s-4.63.02-5.87.09c-1.14,0-2.25.42-3.13,1.16-.44.42-.8.92-1.03,1.48-.24.56-.36,1.16-.35,1.77-.02,1.32-.03,2.14-.03,4.28s0,2.97.03,4.28c0,.61.12,1.21.35,1.77.24.56.59,1.06,1.03,1.48.8.73,1.89,1.09,3.13,1.16s2.94.13,5.87.13,4.62-.06,5.87-.13c1.24-.07,2.33-.43,3.13-1.16.44-.42.79-.92,1.03-1.48s.36-1.16.35-1.77c.02-1.3.03-2.13.03-4.28s0-2.95-.03-4.28c0-.61-.11-1.21-.35-1.77s-.59-1.06-1.03-1.48c-.88-.74-1.98-1.15-3.13-1.16Z"/>
      <path d="M16.92,15.59c0,.69-.33,1.33-1.3,1.33s-1.3-.63-1.3-1.33v-1.28h2.6v1.28h0Z"/>
      <path d="M26,14.31c.69,0,1.33.33,1.33,1.3s-.63,1.3-1.33,1.3h-1.28v-2.6h1.28Z"/>
      <path d="M20.18,21.6c-.55-.14-1.06-.46-1.43-.96l-.26-.35c-.64-.86-.03-2.08,1.04-2.08h2.6c1.07,0,1.69,1.22,1.04,2.08l-.26.35c-.38.5-.88.82-1.43.96v1.82h-1.3v-1.82Z"/>
      <path d="M13.02,19.52c0-.36-.29-.65-.65-.65s-.65.29-.65.65.29.65.65.65.65-.29.65-.65Z"/>
      <path d="M14.97,18.86c.36,0,.65.29.65.65s-.29.65-.65.65-.65-.29-.65-.65.29-.65.65-.65Z"/>
      <path d="M13.67,20.82c.36,0,.65.29.65.65s-.29.65-.65.65-.65-.29-.65-.65.29-.65.65-.65Z"/>
      <path d="M27.98,20.82c.36,0,.65.29.65.65s-.29.65-.65.65-.65-.29-.65-.65.29-.65.65-.65Z"/>
      <path d="M29.93,19.52c0-.36-.29-.65-.65-.65s-.65.29-.65.65.29.65.65.65.65-.29.65-.65Z"/>
      <path d="M26.68,18.86c.36,0,.65.29.65.65s-.29.65-.65.65-.65-.29-.65-.65.29-.65.65-.65Z"/>
      <path d="M107,16.81v-1.04c0-1.06-.84-1.9-1.9-1.9h-8.18v-.4c0-.43-.46-.76-1.09-.76-.68,0-1.14.33-1.14.76v.4h-8.18c-1.06,0-1.9.84-1.9,1.9v1.04c0,.43.43.81,1.09.81.71,0,1.06-.35,1.06-.66v-.66c0-.35.28-.61.63-.61h16.84c.35,0,.61.25.61.61v.66c0,.35.35.66,1.09.66.63,0,1.06-.38,1.06-.81h0ZM106.74,32.05c0-.38-.3-.66-.61-.66h-7.37v-1.29h7.39c.28,0,.58-.25.58-.66,0-.35-.3-.63-.58-.63h-7.39v-1.29h7.39c.28,0,.58-.28.58-.66s-.3-.66-.58-.66h-7.39v-.73c0-.28.2-.51.51-.51h5.62c1.09,0,1.65-.56,1.65-1.52v-1.09c0-1.01-.63-1.47-1.65-1.47h-5.62c-.33,0-.51-.15-.51-.51v-.76h5.72c.28,0,.63-.3.63-.73,0-.4-.35-.68-.63-.68h-5.72v-.38c0-.46-.43-.81-1.06-.81s-1.12.35-1.12.81v2.66c0,1.06.73,1.8,1.8,1.8h5.6c.23,0,.43.1.43.35v.53c0,.3-.18.4-.43.4h-5.57c-1.01,0-1.8.66-1.8,1.8v8.1c0,1.12.89,2.05,2.13,2.05h5.7c.33,0,.68-.33.68-.79s-.35-.73-.68-.73h-4.96c-.4,0-.71-.3-.71-.71v-.58h7.37c.3,0,.61-.25.61-.66v.02ZM95.35,19.21c0-.46-.4-.79-.73-.79h-3.5v-.68c0-.43-.43-.76-1.06-.76s-1.12.33-1.12.76v.68h-3.64c-.33,0-.71.33-.71.79,0,.48.38.81.71.81h.99c.25.89.4,1.7.48,2.56h-1.47c-.33,0-.71.33-.71.81s.38.79.71.79h9.29c.35,0,.73-.33.73-.79,0-.48-.38-.81-.73-.81h-1.45l.61-2.56h.86c.33,0,.73-.33.73-.81h0ZM95.07,33.47v-6.1c0-1.06-.84-1.9-1.9-1.9h-6.46c-1.06,0-1.9.84-1.9,1.9v6.21c0,.4.4.81,1.01.81s.98-.4.98-.81v-.96h6.28v.84c0,.58-.38.89-.91.89h-.38c-.3,0-.66.3-.66.73,0,.46.35.76.68.76h.81c1.42,0,2.43-.89,2.43-2.36h.01ZM91.95,20.02l-.58,2.56h-2.89c-.07-.86-.25-1.72-.46-2.56h3.92ZM93.09,28.33h-6.28v-.84c0-.35.26-.61.61-.61h5.07c.33,0,.61.25.61.61v.84h0ZM93.09,31.21h-6.28v-1.47h6.28v1.47Z"/>
      <path d="M132.02,31.01v-14.13c0-1.04-.79-1.85-1.8-1.85h-7.04c.1-.48.23-1.04.23-1.52,0-.35-.28-.81-.99-.81-.58,0-.86.35-.94.68-.4,2.91-1.34,4.91-2.33,6.21-.1.13-.18.33-.18.53,0,.66.53.96,1.01.96.25,0,.51-.07.66-.25.79-.96,1.45-2.15,1.95-3.62h1.95c-.46,3.9-2.94,7.57-5.09,9.27-.15.15-.3.4-.3.71,0,.61.38,1.01.84,1.01.2,0,.43-.07.63-.25,2.5-2.1,5.04-5.72,5.7-10.74h2.1c-.73,6.03-3.19,12-8.23,15.44-.2.13-.35.4-.35.73,0,.66.61,1.01,1.09,1.01.18,0,.33-.05.46-.13,4.76-3.42,7.8-9.04,8.69-16.26v12.87c0,1.77-1.09,2.89-2.58,2.89h-2.03c-.38,0-.89.4-.89,1.01s.51,1.04.89,1.04h2.08c2.89,0,4.48-1.98,4.48-4.81h0ZM119.2,18.18c0-.63-.46-1.06-.89-1.06h-1.72v-3.52c0-.4-.43-.89-1.04-.89s-1.06.48-1.06.89v3.52h-1.92c.07-.96.1-2,.1-3.17,0-.35-.35-.76-.86-.76s-.86.4-.86.76c-.02,3.6-.26,6.05-.86,7.98-.02.05-.02.13-.02.18,0,.38.3.73.81.73.43,0,.71-.23.79-.48.33-.76.56-1.8.71-3.06h2.13v7.42c-1.26.38-2.66.66-4,.81-.4.05-.84.43-.84,1.04,0,.68.56,1.17.99,1.17.79,0,3.01-.56,3.85-.79v6.31c0,.4.43.89,1.06.89s1.04-.48,1.04-.89v-6.99c.73-.25,1.37-.51,1.9-.76.33-.15.51-.56.51-.91,0-.79-.53-1.14-.99-1.14-.33,0-1.06.43-1.42.56v-6.71h1.72c.43,0,.89-.46.89-1.12h-.01Z"/>
      <path d="M158.54,27.92c0-2.45-.63-4-1.95-5.14-.33-.3-.46-.63-.46-.98,0-.18.05-.4.1-.61l1.45-4.94c.05-.35.13-.68.13-1.04,0-1.01-.84-1.77-1.85-1.77h-4.43c-1.19,0-1.92.91-1.92,1.9v19.92c0,.4.4.86,1.01.86s1.04-.46,1.04-.86v-19.15c0-.35.25-.63.63-.63h2.99c.3,0,.48.18.48.4,0,.05-.02.13-.05.2l-1.37,4.81c-.07.3-.13.58-.13.84,0,.71.3,1.37.86,1.95.99,1.06,1.45,2.23,1.45,4.1,0,1.72-.4,2.48-1.47,2.99-.23.13-.38.4-.38.66,0,.56.23.96.79.96.25,0,.56-.07.96-.28,1.31-.61,2.13-1.95,2.13-4.2h0ZM148.68,15.36c0-.61-.46-1.01-.84-1.01h-4.63v-.76c0-.48-.46-.89-1.09-.89s-1.14.4-1.14.89v.76h-4.58c-.4,0-.86.4-.86,1.01s.46,1.01.86,1.01h11.44c.38,0,.84-.4.84-1.01ZM146.33,19.29c0-.56-.86-.81-1.22-.81-.53,0-.84.81-.84,1.21,0,.53.89.79,1.24.79.56,0,.81-.84.81-1.19h0ZM140.03,19.7c0-.4-.25-1.21-.81-1.21-.35,0-1.19.25-1.19.81,0,.33.26,1.19.79,1.19.35,0,1.22-.25,1.22-.79h0ZM148.68,22.96c0-.58-.46-1.01-.84-1.01h-11.44c-.4,0-.86.43-.86,1.01s.46,1.01.86,1.01h11.44c.38,0,.84-.4.84-1.01ZM147.88,33.64v-5.32c0-1.06-.84-1.9-1.87-1.9h-7.75c-1.06,0-1.9.84-1.9,1.9v5.32c0,1.04.84,1.87,1.9,1.87h7.75c1.04,0,1.87-.84,1.87-1.87ZM145.72,32.99c0,.35-.28.61-.63.61h-5.98c-.35,0-.61-.25-.61-.61v-4.02c0-.35.25-.63.61-.63h5.98c.35,0,.63.28.63.63v4.02Z"/>
      <path d="M180.53,15.59c0-.61-.43-.98-.84-.98h-2.31v-1.01c0-.43-.43-.89-1.09-.89s-1.09.46-1.09.89v1.01h-8.31v-1.01c0-.43-.43-.89-1.09-.89s-1.09.46-1.09.89v1.01h-2.31c-.4,0-.84.38-.84.98s.43.96.84.96h2.31v.94c0,.43.43.89,1.09.89s1.09-.46,1.09-.89v-.94h8.31v.94c0,.43.43.89,1.09.89s1.09-.46,1.09-.89v-.94h2.31c.4,0,.84-.35.84-.96ZM182.17,27.44c0-.51-.35-.89-.73-.91-1.98-.07-3.57-.4-4.91-.91,2.84-2.08,4.13-4.61,4.13-5.49s-.71-1.39-1.49-1.39h-6.33c-.84,0-1.42.15-2,.68-1.04.91-1.7,1.62-2.91,2.1-.35.13-.58.58-.58.89,0,.56.43.94.89.94,1.19,0,2.96-1.72,3.75-2.56.23-.23.51-.3.76-.3h5.12c.25,0,.38.13.38.28,0,.53-1.19,2.38-3.67,3.88-.89-.58-1.65-1.24-2.33-2.03-.23-.33-.48-.46-.94-.46-.53,0-.86.46-.86.86,0,.15.05.28.13.4.68.76,1.42,1.47,2.23,2.1-1.39.56-3.04.96-4.99,1.04-.4.02-.79.43-.79.94,0,.61.46.98.89.98,2.31,0,4.76-.71,6.81-1.75,1.87,1.01,4.46,1.7,6.56,1.7.4,0,.91-.4.91-.98h0ZM163.97,20.17c0-.56-.84-.79-1.24-.79-.53,0-.76.79-.76,1.17,0,.61.84.81,1.19.81.58,0,.81-.79.81-1.19h0ZM180.58,33.64v-2.56c0-1.06-.84-1.9-1.9-1.9h-8.1c-1.06,0-1.9.84-1.9,1.9v2.56c0,1.04.84,1.87,1.9,1.87h8.1c1.06,0,1.9-.84,1.9-1.87ZM163.21,24.58c0-.56-.81-.79-1.24-.79-.51,0-.73.81-.73,1.19,0,.61.81.79,1.17.79.58,0,.81-.79.81-1.19ZM165.54,29.21v-.13c0-.4-.33-.91-1.01-.91-.53,0-.94.35-.99.71-.38,2.05-1.34,3.9-2.56,5.11-.13.1-.2.3-.2.51,0,.51.53.91,1.12.91.28,0,.51-.13.66-.28,1.14-1.32,2.5-3.29,2.99-5.93h0ZM178.38,33.24c0,.35-.26.63-.61.63h-6.28c-.35,0-.61-.28-.61-.63v-1.75c0-.35.25-.63.61-.63h6.28c.35,0,.61.28.61.63v1.75Z"/>
    </g>
  </g>
</svg>