<svg xmlns="http://www.w3.org/2000/svg" xmlns:xlink="http://www.w3.org/1999/xlink" width="36" height="36" viewBox="0 0 36 36"><defs><clipPath id="a"><rect width="36" height="36" transform="translate(0 0)" fill="none"/></clipPath></defs><g transform="translate(0 -0.406)"><g transform="translate(0 0.406)" clip-path="url(#a)"><path d="M36.1,18.049A18.049,18.049,0,1,0,13.689,35.566v-12H9.967V18.049h3.722V15.672c0-6.143,2.78-8.991,8.811-8.991a19.9,19.9,0,0,1,3.924.448v5c-.426-.045-1.166-.067-2.085-.067-2.959,0-4.1,1.121-4.1,4.036v1.951h5.9l-1.013,5.515H20.235v12.4A18.051,18.051,0,0,0,36.1,18.049" transform="translate(0 -0.097)" fill="#0866ff"/><path d="M153.205,109.431l1.013-5.515h-5.9v-1.951c0-2.915,1.143-4.036,4.1-4.036.919,0,1.659.022,2.085.067V93a19.9,19.9,0,0,0-3.924-.448c-6.031,0-8.811,2.847-8.811,8.991v2.377h-3.722v5.515h3.722v12a18.15,18.15,0,0,0,6.547.4v-12.4Z" transform="translate(-128.087 -85.964)" fill="#fff"/></g></g></svg>